<svg width="18" height="19" viewBox="0 0 18 19" fill="none" xmlns="http://www.w3.org/2000/svg">
<g id="flat-color-icons:google">
<path id="Vector" d="M16.3541 7.78113H15.75V7.75H9V10.75H13.2386C12.6203 12.4964 10.9586 13.75 9 13.75C6.51487 13.75 4.5 11.7351 4.5 9.25C4.5 6.76487 6.51487 4.75 9 4.75C10.1471 4.75 11.1908 5.18275 11.9854 5.88962L14.1068 3.76825C12.7673 2.51987 10.9755 1.75 9 1.75C4.85812 1.75 1.5 5.10812 1.5 9.25C1.5 13.3919 4.85812 16.75 9 16.75C13.1419 16.75 16.5 13.3919 16.5 9.25C16.5 8.74713 16.4482 8.25625 16.3541 7.78113Z" fill="#FFC107"/>
<path id="Vector_2" d="M2.36475 5.75912L4.82887 7.56625C5.49562 5.9155 7.11037 4.75 9 4.75C10.1471 4.75 11.1907 5.18275 11.9854 5.88962L14.1067 3.76825C12.7672 2.51987 10.9755 1.75 9 1.75C6.11925 1.75 3.621 3.37637 2.36475 5.75912Z" fill="#FF3D00"/>
<path id="Vector_3" d="M9.00012 16.75C10.9374 16.75 12.6976 16.0086 14.0285 14.803L11.7072 12.8388C10.9289 13.4307 9.97791 13.7508 9.00012 13.75C7.04937 13.75 5.39299 12.5061 4.76899 10.7703L2.32324 12.6546C3.56449 15.0835 6.08524 16.75 9.00012 16.75Z" fill="#4CAF50"/>
<path id="Vector_4" d="M16.3541 7.78113H15.75V7.75H9V10.75H13.2386C12.9428 11.5812 12.41 12.3074 11.706 12.8391L11.7071 12.8384L14.0284 14.8026C13.8641 14.9519 16.5 13 16.5 9.25C16.5 8.74713 16.4482 8.25625 16.3541 7.78113Z" fill="#1976D2"/>
</g>
</svg>



